<svg width="114" height="105" viewBox="0 0 114 105" fill="none" xmlns="http://www.w3.org/2000/svg">
<path d="M56.386 99.2441C42.8615 99.2441 26.9703 97.6231 16.6862 87.6247C11.5497 82.6308 6.12143 76.4228 4.85162 69.2272C3.57491 61.9925 4.09851 54.512 4.09851 47.1718C4.09851 32.8105 10.1424 21.8309 22.0656 14.0349C25.1447 12.0217 28.0773 9.7096 31.2105 7.79485C34.6754 5.6774 39.3501 6.16394 43.2603 5.53552C53.5552 3.88098 63.9571 4.35205 74.3531 4.35205C90.7404 4.35205 101.142 15.2221 107.167 30.0116C113.766 46.2094 106.617 65.547 98.9906 80.2549C92.258 93.2391 80.2545 101.181 65.5847 101.181C61.5502 101.181 57.5156 101.181 53.4811 101.181C47.5135 101.181 41.7833 99.2441 36.052 99.2441" stroke="black" stroke-width="7" stroke-linecap="round"/>
<path d="M33.1487 51.798C33.1487 52.793 33.7168 57.2379 32.6108 57.5539C30.3465 58.2008 29.2756 52.4586 29.2756 50.8297C29.2756 43.3662 39.8025 58.3346 34.6011 59.4905C28.779 60.7843 26.8288 49.0603 31.6963 47.9786C38.2876 46.5139 40.532 64.991 33.1487 57.6077" stroke="black" stroke-width="7" stroke-linecap="round"/>
<path d="M71.8797 43.0833C68.4117 42.7365 62.4786 37.0344 67.7914 35.1218C69.3934 34.5451 71.3658 32.6556 73.0631 33.8307C75.6443 35.6177 77.1033 40.3653 74.3004 42.5453C70.8789 45.2065 65.4964 33.4004 69.459 33.4004C72.5743 33.4004 73.9028 44.1381 68.9748 39.2101" stroke="black" stroke-width="7" stroke-linecap="round"/>
<path d="M37.0215 76.9738C45.0801 79.9585 49.564 82.7835 58.3238 82.7835C62.198 82.7835 67.604 79.6725 70.9115 77.7269C80.7506 71.9392 88.3407 62.9172 88.3407 50.8301" stroke="black" stroke-width="7" stroke-linecap="round"/>
</svg>
