<svg width="86" height="108" viewBox="0 0 86 108" fill="none" xmlns="http://www.w3.org/2000/svg">
<path d="M53.7639 73.2036C50.5672 63.6136 48.0549 53.8686 44.0112 44.5647C39.2358 33.5774 33.0013 22.9946 27.0601 12.5975C26.1585 11.0197 29.1854 15.565 30.4658 16.8547C36.3195 22.7508 42.5528 28.3257 48.6553 33.9606C53.6865 38.6062 58.7556 43.1331 64.4454 46.9642C66.8276 48.5682 69.7751 49.8879 71.6438 52.1501C73.2994 54.1543 74.9025 56.2388 76.4815 58.3036C78.201 60.5522 75.8008 59.5393 74.3529 59.2711C60.3485 56.6777 44.9162 57.3995 30.7367 57.22C24.0125 57.1349 17.0784 57.6499 10.3799 56.833C9.12628 56.6801 6.97555 56.7542 8.56091 55.1688C13.1254 50.6043 19.0876 47.0665 24.5832 43.7907C35.02 37.5695 44.6614 31.2395 54.3057 23.8983C56.8971 21.9257 58.7335 19.3384 61.4267 17.4739C64.5222 15.3308 67.3385 12.6011 70.0184 9.96585C73.3576 6.68227 72.9687 7.5064 73.6176 12.4814C74.908 22.3748 75.2901 32.7329 72.8049 42.4748C69.7278 54.537 62.1887 63.4816 56.1247 74.0937C51.6153 81.9851 50.1987 89.0369 49.5455 97.8562C49.291 101.292 48.8875 98.516 48.8875 96.8887" stroke="black" stroke-width="16" stroke-linecap="round"/>
</svg>
