<?xml version="1.0" encoding="UTF-8"?>
<svg id="Capa_1" data-name="Capa 1" xmlns="http://www.w3.org/2000/svg" viewBox="0 0 735.43 595.28">
  <defs>
    <style>
      .cls-1 {
        stroke-width: 0px;
      }

      .cls-1, .cls-2 {
        fill: #fff;
      }

      .cls-2 {
        font-family: Estedad-SemiBold, Estedad;
        font-size: 162px;
        font-weight: 600;
        letter-spacing: 0em;
      }
    </style>
  </defs>
  <g>
    <path class="cls-1" d="M449.13,374.87c.85-.22,1.18-1.08,1.42-2.32.57-2.88.91-5.96.99-8.96.59-12.38.34-24.8-.3-37.19-.16-17.09-.14-34.14-.42-51.26-.18-6.91,7.71.57,10.27,2,9.87,7.41,17.01,17.86,21.53,29.21,1.54,7.04,2.49,14.38,4.65,21.21,1.23,2.54,3.58,4.19,5.7,5.94,4.18,4.74,9.86,6.98,16.23,5.81,11.34-2.6,22.47-7.56,31.85-14.51,10.35-8.23,22.54-15.02,29.26-26.85,1.85-4.32,5.54-7.55,7.17-12.02,3.66-10.85-.13-21.98-12.23-24.66l-.18-.04c-13.2-3.13-27.09.3-38.5,7.09-6.61,4.64-7.37,9.81-11.67-.78-4.47-19.71-19.9-31.85-34.11-44.97-7.72-7.5-16.55-13.66-26.83-17.01-7.24-1.81-3.29-13.58-3.88-19.17-.04-9.65-.75-19.33-.82-29,.06-2.64-.76-5.52.31-7.98.46-.81.57-.64-.21-1.21-.65-.44-1.16-1.17-1.24-1.97-.26-1.48.98-2.93.9-4.49-.27-4.16-1.01-8.35-1.13-12.51-.48-2.06.68-4.18.82-6.25-.53-2.53-1-5.13-.57-7.78-.67-22.15,2.08-24.89-22.6-22.27-33.1-.35-66.22,1.14-99.36,1.13-22.6.52-45.37.54-67.82,2.71-4.59-.85-9.16.02-13.83-.24-2.11-.12-4.43.63-5.62,2.32-.94,1.2-.99,2.95-.78,4.46.69,4.08.36,8.19.21,12.31-1.65,38.42,2.01,76.68.48,115.06-.8,2.38-3.67,2.85-5.69,3.82-6.84,3.22-8.67,10.87-4.47,17.07.79,2.11-.49,4.43-.76,6.69-1.01,4.89,1.57,9.39,5.27,12.4.76.93.6,2.14.28,3.24-2.02,6.23,2.06,7.98,5.22,12.26.41,1.38-1.37,2.79-1.69,4.22-.34,3.67,1.86,7.17,2.95,10.61,2.09,21.52,1.44,43.52,2.2,65.16.62,3.12-1.82,9.79,3.39,8.89,4.09-.19,8,.05,11.91.96,4.15-.08,8.15-.8,12.26-.05,11.13.4,22.37.26,33.48-.91,13.75,1.61,27.82,1.04,41.64.27,34.69.29,69.69.68,104.33-.43ZM453.01,210.25c11.89,5.79,22.29,14.04,31.81,23.28,8.46,8.23,15.23,18.1,22.45,27.39,1.11,1.55,1.84,3.29,2.28,5.15,1.25,5.5,4.1,10.46,5.27,15.97,2.85,7.83,15.07-11.96,31.94-14.47,6.99-1.38,14.1-.47,20.95,1.96,4.2,1.23,5.98,5.37,6.85,9.42,0,1.51-2.25-.72-2.88-.16l-.05.05c.22,2.93,3.7,4.24,1.32,7.73-3.39,4.89-6.23,10.09-10.04,14.61-5.86,6.13-12.69,11.44-19.76,16.04-7.38,4.45-15.06,8.51-22.68,12.54-2.19,1.08-4.62,2.03-7.1,2.04-3.43-.08-6.04-4.17-5.17-7.34.94-2.89,2.33-5.25,3.44-8.25.79-1.86.51-2.28-1.05-.64-5.03,5.1-6.78,10.62-2.75,15.5.36.64.42,1.14-.2,1.42-5.03,1.4-16.19-7.2-15.47-12.68,1.19-8.66-3.33-16.54-5.17-24.77-6.78-12.35-17.71-22.91-30.29-29.25-9.03-4.53-18.79-5.14-28.6-5.79-5.11-.64-10.18-.23-15.29.26-4.94,0-9.78.02-14.44,1.65-7.38,2.38-14.94,4.44-21.84,7.96-7.01,3.99-13.43,8.98-19.93,13.73-5.49,4.15-10.83,8.49-15.94,13-1.69,1.43-2.12,3.62-2.46,5.72-3.15,14.69-8.95,29.16-17.67,41.45-2.16,3.29-4.19,7.46-8.41,8.29-7.12,1.72-34.17-1.82-37.51,2.98,1.7,4.8,22.35,2.17,27.21,2.08,17.95-.1,40.68-.07,59.43-.03,4.55.01-18.08-1.92-22.49-2.85-2.41-.51-17.11-.29-14.4-4.41,8.54-14.69,16.47-29.91,18.5-47.04.14-2.92,1.74-5.36,4.04-7.11,6.01-4.46,12.19-8.72,18.48-12.76,5.24-2.63,11.03-4.18,16.24-6.95,13.14-7.48,28.63-9.42,43.67-8.96v81.68l-13.43,4.48h18v-85.88l-.15-.08c1.23.07,2.45.16,3.67.26,3,.48,8.12-.61,8.18,3.79.06,14.2-.18,28.34.13,42.54.32,13.66.8,27.3.8,40.88-.56,3.74,2.27,11.19-3.4,11.47-62.32-.19-125.03,1.48-187.16,1.3-1.99-18.94-.87-38.7-1.8-58.05-.05-1.33.15-2.88,1.6-3.19,3.9-.62,7.77.66,7.41,5.11.18,8.56.68,17.08,1.87,25.51-.62,5.55.17,11.95,2.65,16.96,1.4-13.36.62-27.36.48-40.91-.17-3.84.16-7.24,4.25-8.69,8.31-4.39,6.79-10.35,6.04-18.16,3.15-5.69,6.25-9.59,1.65-16.11-.91-1.29-1.61-2.79-.78-4.27,8.7-16.08-2.86-18.07.36-25.77,2.23-5.51-.17-13.22-5.36-16.11-2.55-1.69-6.6-1.94-7.63-5.22-1.52-16.03,0-32.34-1.95-48.42-1.03-9.73-1.15-10,7.1-3.65,18.4,14.45,35.99,30.35,51.63,47.73,1.64,1.84,3.57,3.2,5.34,4.8,1.09,1.27,1.51,3.09,2.79,4.29,5.01,4.52,11.64,17.69,17.67,19.53,3.01-.37,4.85-3.57,7.14-5.29,5.65-5.31,12.05-8.99,18.85-12.87,14.6-8.1,29.44-16.5,46.3-17.73,11.77-2.57,24.04.19,35.45,3.34ZM253.19,102.87c1.23-.36,2.41-1.51,3.54-1.44h.16c1.24.12,2.24,1.3,3.53,1.16,1.2-.03,2.32-1.45,3.34-1.53,4.31,1.46,11.54,3.16,16.08,1.27,1.24-.56,1.93-.27,3.22.07,8.39,1.36,21.55,1.19,30.87.66,3.63-.17,5.05-.6,7.07-.93,2.64.02,5.45.53,8.15.27,5.81-.53,11.6-.7,17.39-.07,3.4.55,6.51-.98,9.84-1.23,7.05,1.34,14.12.54,21.22.42,3.76.1,7.87.18,11.42-.79,2.06.43,4.76,1.17,6.72-.47.75-.44,1.08-.92,1.75-.7.51.23.92,1.35,1.96,1.57,1.22.31,2.64.12,3.91.11,5.52-.23,11.08.32,16.59.13,6.06-.28,12.48-.82,18.65-.55,2.75-.11,2.97,2.42,2.65,4.54-.16,1.47-.83,1.52-1.09,3-.48,2.89-.14,7.15.59,9.96.45,1.72-1.03,3.47-.72,5.37,1.2,9.75-.47,19.44.34,29.22.63,10.77-.47,21.44-.21,32.24-.16,4.72.89,9.79-.02,14.37-.33.54-.98.74-1.81.74-2.57-.08-5.1-.28-7.66-.18-11.46,0-22.65,2.47-33.42,6.31-6.61,1.93-12.02,6.17-17.92,9.51-6.77,4.53-14.17,8.36-20.13,13.98-1.34.89-2.65,2.07-3.51,3.19-.65.43-.52.52-1.37,1.27-2.67,2.35-5.38,5.94-9.12,6.03-3.82-2.87-5.74-8.36-8.81-12.11-7.88-11.28-16.6-21.86-25.99-31.9-14.63-14.93-30.66-28.54-47.88-40.39-1.57-1.21-2.77-2.36-2.65-4.28.06-5.52-.03-12.41,0-17.8-.01-3.89.02-11.26,0-14.37l150.33-6.08h-155.05v5.54c-.03.22-.04.46,0,.73.73,36.45.54,72.95,1.64,109.33.05,2.6-2.32,2.46-4.63,2.36-2.45.22-3.77-1.17-3.62-3.66-1.09-32.36-.91-97.92-.9-123.11-.47-3.83,3.5-.46,5.61-1.76ZM233.17,241.91l.15-.13c4.46-3.6,10.2-4.96,15.89-5.33,5.22-.64,10.48-1.19,15.67-2.03,3.21-.91-1.01-2.93-1.27-4.45-.43-.97-1.17-5.79.32-5.42,3.65,1.75,7.55,4.35,8.58,8.47,1.49,8.89-7.36,13.21-14.35,15.72-1.72.67-3.38,1.47-5.06,2.21-3.53,1.54-7.9,1.7-11.92,1.61-2.9.01-5.25-1.5-7.57-3.32-2.77-2-3.4-5-.45-7.33ZM232.45,262.48l-.09-.16c-.93-1.54-.7-3.29.13-5.11.42-1.07,1.26-1.83,2.44-1.04,3.4,2.38,7.33,2.61,11.17,2.58,1.78.04,3.48-.46,5.08-1.22,5.96-2.71,12.01-5.46,17.86-8.23.92-.53,2.04-.54,2.35.61.69,2.33,1.31,4.69,1.47,7.23.28,3.56-2.72,5.97-5.7,7.21-4.67,2.15-9.84,3.76-14.93,4.75-3.93.61-8.03.51-11.97-.14-3.43-.79-5.93-3.65-7.81-6.47ZM239,279.38l-.11-.13c-1.05-1.41-.91-4.77,1.48-4.6.82-.03,1.71.12,2.52.27,3.47.88,6.74-.16,10.09-.83,5.45.13,10.66-1.27,15.61-3.48,3.64-1.91,5.96,5.42,5.34,7.85-.49,2.51-3.23,3.73-5.44,4.53-11.5,4.52-19.47,3.88-29.5-3.61ZM242.83,293.18l-.03-.2c-.53-2.86,1.9-2.83,3.93-2.41,7.25,1.29,14.31,1.02,21.26-1.77,1.18-.55,2.38.02,2.82,1.28,1.45,3.45.33,7.09-1.75,9.57-.78.89-1.85,1.35-3.03,1.53-4.57.57-9.21.67-13.71-.23-4.31-.65-8.61-3.14-9.47-7.78Z"/>
    <path class="cls-1" d="M532.46,291.76c.72-.75,1.3-1.68,2.12-2.31,1.06-.79,2.41-.86,3.47-1.69,1.79-1.38,3.26-3.44,5.1-4.43,1.4-.74,3.04-1.2,4.26-2.25,1.21-.98,2.25-2.24,3.37-3.42.62-.7.65-1.01-.23-.83-7.23,1.71-22.64,12.5-24.17,19.06h.07c2.11-1.04,4.56-2.7,6.01-4.12Z"/>
    <path class="cls-1" d="M372.43,115.21h-.03s.01.03.03.04v.02s.02-.03.03-.04c-.01,0-.01-.01-.02-.01,0-.01-.01-.01-.01-.01Z"/>
  </g>
  <text class="cls-2" transform="translate(232.55 487.69) scale(.83 .86)"><tspan x="0" y="0">.art</tspan></text>
</svg>