<svg width="111" height="135" viewBox="0 0 111 135" fill="none" xmlns="http://www.w3.org/2000/svg">
<path d="M44.9006 5.03564C38.5025 1.83662 29.4071 2.46916 22.5572 3.70215C15.5816 4.95776 7.49778 9.018 4.15499 15.7036C2.18104 19.6515 2.98706 26.7075 3.32526 30.935C3.76684 36.4547 8.42737 40.2729 10.5261 45.07C16.2056 58.0517 6.36652 73.6244 18.853 84.2747C24.5088 89.0987 30.9845 93.0461 38.4702 93.0461C46.0431 93.0461 50.9996 84.9982 57.9984 83.2079C68.2781 80.5782 76.9823 83.774 87.2759 84.3932C91.6255 84.6548 96.8787 83.7455 100.374 81.015C102.968 78.9886 106.873 76.1744 107.723 72.777C109.801 64.4644 103.648 57.6114 97.4697 53.0413C91.5023 48.6271 78.7209 43.2515 77.9711 34.2539C77.5442 29.1307 74.913 23.989 72.6372 19.4373C70.3287 14.8204 66.3467 11.598 61.7322 9.42135C57.7031 7.52082 53.5656 7.86112 49.2863 7.70263C47.7131 7.64436 44.5259 6.41996 43.8338 5.03564" stroke="black" stroke-width="5" stroke-linecap="round"/>
<path d="M68.9041 98.9133C64.0066 99.3585 58.7695 102.723 58.7695 108.011C58.7695 112.665 61.7383 114.545 65.0518 117.049C68.4416 119.61 68.2924 122.856 69.7042 126.62C71.1376 130.443 75.747 133.026 79.8091 131.865C84.5118 130.522 85.1143 122.852 87.5729 119.301C88.8308 117.484 91.3788 117.51 92.9069 115.982C94.6938 114.195 93.9737 110.823 93.9737 108.514C93.9737 103.897 88.3806 101.047 84.4022 101.047C81.6483 101.047 76.7719 101.973 74.238 100.632C72.1417 99.5222 70.3345 98.3799 67.8373 98.3799" stroke="black" stroke-width="5" stroke-linecap="round"/>
</svg>
