<svg width="145" height="107" viewBox="0 0 145 107" fill="none" xmlns="http://www.w3.org/2000/svg">
<path d="M75.6095 4.58047C75.3731 2.68947 63.0382 3.02261 61.1993 3.02261C51.0219 3.02261 41.2853 4.07673 31.2105 4.58047C27.3481 4.77359 23.6551 10.0258 20.6517 11.937C15.718 15.0767 11.9531 19.9385 8.23212 24.4864C5.45574 27.8798 6.35957 31.3472 4.55384 34.9587C3.13925 37.7879 3.16908 40.6783 3.16908 43.9164C3.16908 51.1797 2.78865 58.1088 3.16908 65.3369C3.79794 77.2853 12.7984 86.1227 22.2961 92.1667C31.7755 98.1991 44.7487 102.726 56.1363 102.726C60.4648 102.726 64.8905 103.633 69.3781 103.504C74.1389 103.368 76.5375 99.7322 80.4562 98.2251C83.6522 96.9958 88.5794 92.6708 90.7553 89.8732C93.0497 86.9233 97.4919 82.8117 98.8043 79.5308C100.236 75.952 104.304 74.6588 106.291 71.5684C107.501 69.685 108.24 69.134 109.882 67.6737C111.243 66.4643 113.314 66.7256 114.513 65.7264C115.67 64.7618 120.118 63.9601 121.566 63.7791C123.927 63.4839 127.361 60.9056 129.659 59.8844C135.872 57.1231 141.818 51.3359 141.818 44.3059C141.818 40.6117 135.554 28.5919 131.692 27.9483C130.752 27.7917 129.419 25.5816 128.577 24.8326C126.97 23.4045 124.654 23.1056 123.167 21.3707C121.008 18.8512 116.768 17.6973 114.166 15.096C108.846 9.77552 97.8161 8.38929 90.4524 7.65292C83.895 6.99717 78.4011 4.58047 71.7148 4.58047" stroke="black" stroke-width="6" stroke-linecap="round"/>
<path d="M116.115 37.2949C111.149 37.2949 107.547 37.6501 107.547 43.5264C107.547 48.4037 111.268 51.0607 115.726 52.0513C125.63 54.2522 124.494 38.0739 115.336 38.0739" stroke="black" stroke-width="6" stroke-linecap="round"/>
<path d="M31.2115 22.4954C27.3439 22.4954 21.974 27.7686 21.8643 31.4963C21.6859 37.5638 29.5767 39.4153 26.711 45.8632C24.1978 51.5179 30.188 54.725 34.5003 56.1624C36.8986 56.9618 39.255 57.0844 39.7364 53.9554C40.3427 50.0143 39.6926 49.1958 42.7223 46.4691C44.1429 45.1906 46.2853 46.4033 47.9584 45.4738C50.204 44.2262 51.4636 42.2486 51.4636 39.6318C51.4636 33.0773 45.3761 36.3066 42.2896 32.4483C40.5287 30.2473 45.8342 22.3371 40.5586 21.7164C36.697 21.2621 32.9272 20.9375 28.8747 20.9375" stroke="black" stroke-width="6" stroke-linecap="round"/>
<path d="M56.0027 16.4582C54.7517 17.7091 53.5626 18.614 54.0653 20.5131C54.842 23.4474 57.2916 23.4345 59.4268 24.7932C61.8444 26.3317 65.3993 25.3032 67.7619 27.091C69.9277 28.73 68.4527 32.4314 69.9695 34.6376C72.0172 37.616 79.0906 38.6429 80.9403 35.3135C81.6538 34.0291 81.143 31.5938 81.143 30.1547C81.143 27.3543 83.6603 26.9166 85.3782 25.1987C88.3418 22.2351 85.7701 19.9878 82.8551 18.2604C79.944 16.5353 76.2156 19.9557 73.4387 18.4856C71.7546 17.594 70.6106 15.7057 68.7756 14.8587C67.0278 14.0521 65.7922 13.2143 63.707 13.2143C60.9809 13.2143 58.4891 12.7017 57.2191 15.2417" stroke="black" stroke-width="6" stroke-linecap="round"/>
<path d="M25.5909 65.928C23.2538 65.928 19.9141 66.4421 19.9141 69.5548C19.9141 71.8974 22.2866 73.56 24.2843 74.7586C25.5887 75.5412 27.536 76.3262 29.0601 76.4482C29.7626 76.5044 31.5597 76.4302 32.0788 77.0789C33.8478 79.2903 34.1098 81.6875 35.4128 84.175C36.8758 86.968 41.1765 88.2299 44.0407 88.2299C46.1665 88.2299 48.3363 86.1779 50.3258 85.4816C52.3851 84.7609 54.6896 89.4464 56.6334 89.4464C59.068 89.4464 62.0018 89.1669 63.6169 87.0134C67.5792 81.7303 63.7224 75.6597 57.6246 75.6597C56.0561 75.6597 52.2273 76.4329 51.1368 75.1866C48.8133 72.5312 48.1693 68.7664 44.2435 68.7664C43.425 68.7664 42.6065 68.7664 41.788 68.7664C40.6277 68.7664 39.8233 69.5774 38.7694 69.5774C37.2812 69.5774 35.4244 67.8936 34.1062 67.2345C30.951 65.6569 27.9085 65.5225 24.3745 65.5225" stroke="black" stroke-width="6" stroke-linecap="round"/>
<path d="M67.7618 51.7356C67.2656 50.9086 65.7344 55.1049 65.7344 55.7679C65.7344 57.3147 65.8016 57.9839 66.8607 59.1245C67.4777 59.7889 67.7589 61.2189 68.7756 61.4448C69.7579 61.6631 70.8582 61.9874 71.6365 62.6838C73.0062 63.9093 72.6277 66.5847 72.6277 68.2706C72.6277 71.1091 74.6786 72.9211 75.9617 75.254C78.6478 80.1377 81.7213 73.4666 82.8551 71.1991C83.5807 69.7479 83.7632 67.6212 85.6935 67.5497C87.9777 67.4651 89.7424 65.7009 91.866 65.0942C92.5181 64.9079 93.6016 63.6407 94.344 63.2695C95.4258 62.7286 95.4094 62.6313 95.9434 61.6701C96.7708 60.1807 95.9036 58.1908 94.7044 57.2097C92.2875 55.2322 89.926 57.134 87.4281 56.5789C86.5974 56.3943 86.0067 53.4328 85.5583 52.7042C83.2099 48.8881 78.7757 52.7927 76.0969 50.4966C74.9901 49.5479 74.5343 48.4226 72.8079 48.1087C71.9932 47.9606 69.3363 47.7757 68.9783 48.4917" stroke="black" stroke-width="6" stroke-linecap="round"/>
</svg>
