<svg width="87" height="109" viewBox="0 0 87 109" fill="none" xmlns="http://www.w3.org/2000/svg">
<path d="M5.29313 3C2.68976 3 10.4864 3.45899 13.0898 3.45899C13.8844 3.45899 14.6407 3.94486 15.3829 4.27498C16.2247 4.64943 17.3025 4.08448 18.1347 4.47898C23.6975 7.1161 29.4543 10.1978 33.8299 14.5769C36.9409 17.6903 37.7702 20.2905 38.6709 24.5727C39.4193 28.1302 38.9116 32.0653 36.9384 35.0276C35.8674 36.6354 34.2903 37.574 32.9126 38.9035C31.4621 40.3034 29.6322 40.7466 28.2245 42.0145C26.4179 43.6417 23.0653 44.3606 20.6571 43.825C18.3754 43.3175 13.6507 41.3268 12.6312 39.031C11.6363 36.7909 11.7139 34.5963 11.7139 32.1716C11.7139 29.3095 13.0243 21.4909 10.5673 19.5238C10.1796 19.2134 9.51408 17.5343 9.39529 16.9993C9.12021 15.7605 5.94515 14.7453 7.00024 14.0414C8.18942 13.2479 11.9301 14.6085 13.0898 15.1888C13.3238 15.306 15.7091 17.3788 15.8161 16.8973C16.5523 13.5816 13.6277 8.85132 11.2298 6.90145C8.53018 4.70625 6.66491 3.45899 3 3.45899" stroke="black" stroke-width="5" stroke-linecap="round"/>
<path d="M14 38C14.9344 36.9277 15.2034 35.0127 15.7644 33.725C16.5238 31.9819 17.3067 32.0978 19.0973 32.15C20.8434 32.2009 22.0883 33.5 23.9495 33.5C26.1302 33.5 26.6404 33.0715 27.1353 30.8C27.5541 28.8773 26.781 26.7978 27.6744 24.975C28.7457 22.7892 29.3903 23.15 31.7424 23.15C33.0853 23.15 34.499 23.2685 35.8349 23.125C37.3944 22.9575 36.9377 21.2035 36.9377 20" stroke="black" stroke-width="5" stroke-linecap="round"/>
<path d="M26.0713 44.9285C26.0713 47.8475 25.6826 50.9214 26.7206 53.6454C27.5831 55.9089 28.1842 58.0822 29.3179 60.2724C30.1603 61.8998 31.6253 62.746 32.5396 64.1975C33.1532 65.1718 33.0403 65.8808 34.063 66.7464C39.5105 71.3568 45.783 75.1392 50.7957 80.2551C53.3338 82.8455 56.157 85.1798 58.8623 87.5957C60.337 88.9126 61.7837 90.5008 63.1828 91.9287C64.773 93.5516 67.0199 95.2748 68.3275 97.1283C69.154 98.2999 70.348 99.9311 71.724 100.442C73.4067 101.066 74.7592 103.113 76.1694 104.29C77.4406 105.352 81.3137 106.86 82.6127 105.386C85.0288 102.647 83.832 100.561 82.4629 97.8929C81.8068 96.6146 80.7136 96.1131 79.7906 95.0892C78.6433 93.8164 77.8102 92.1466 76.8687 90.7053C75.2833 88.2783 73.9216 85.7887 72.8228 83.1098C71.1928 79.1357 68.6155 75.3375 66.7541 71.5381C64.8465 67.6443 63.8529 63.2714 61.9341 59.3548C60.1897 55.7942 59.7696 51.804 58.188 48.1145C56.45 44.0603 53.9152 41.2897 51.1453 38.1486C49.6948 36.5038 47.2425 34.8547 45.1765 33.9176C43.2121 33.0265 41.265 33 39.1078 33" stroke="black" stroke-width="5" stroke-linecap="round"/>
<path d="M13.7401 30.7612C13.7401 26.623 13.7401 14.2082 13.7401 18.3465C13.7401 20.9768 14.6246 23.7077 15.7322 26.0684C17.9438 30.7818 14.6255 22.4132 14.6255 21.2267C14.6255 19.1358 16.1895 25.1017 17.085 26.9871C17.2497 27.3339 18.4924 30.6884 18.5115 30.6619C19.2904 29.5806 18.6099 25.9016 18.6099 24.5538C18.6099 21.228 19.2701 26.1511 19.9134 27.4092C20.4825 28.5223 22.3819 35.0101 23.578 30.3143C24.246 27.6917 23.0369 26.4865 23.0369 24.0572C23.0369 20.1847 24.2763 20.0349 28.1035 20.0349C30.9472 20.0349 32.5126 20.0088 31.5468 16.9064C30.8797 14.7634 25.843 11.1635 23.701 10.2024C22.265 9.55807 21.0895 8.15889 19.6674 7.52082C17.8559 6.70801 15.9475 6.19109 14.0844 5.63378C13.6072 5.49104 10.3511 4.47028 11.6741 5.36066C13.5418 6.61771 17.3104 7.75302 18.6099 9.55684C20.4102 12.0559 21.9588 19.3841 17.8228 20.8294C15.5636 21.6189 14.35 20.4764 12.6579 19.3893C11.3578 18.5541 9.76084 16.5342 12.5103 17.3533C14.9486 18.0797 18.2973 20.3485 21.0202 19.5631C22.8668 19.0305 21.1799 15.5791 20.602 14.6717C19.7476 13.3298 19.1284 12.0506 18.5115 10.6493C17.7264 8.86609 18.6099 14.479 18.6099 15.3421C18.6099 17.0553 18.6099 18.7686 18.6099 20.4818C18.6099 23.1863 18.8344 23.9991 21.2661 25.2987C23.2689 26.3692 21.4616 22.834 21.7334 21.5991C22.2265 19.359 26.9956 19.7606 28.1527 20.9287C29.1103 21.8955 25.3364 22.9628 24.8324 23.3869C23.0716 24.8681 27.607 18.6941 29.8989 18.6941C31.5064 18.6941 36.7268 19.5879 32.1863 19.5879C29.0417 19.5879 26.9225 19.0413 24.5864 16.6829C24.0094 16.1004 21.3271 12.5186 23.0369 13.3309C24.3966 13.9769 25.708 14.8422 26.5786 16.1118C27.1506 16.9459 27.2784 17.8002 28.3494 17.8002" stroke="black" stroke-width="5" stroke-linecap="round"/>
</svg>
