<svg width="31" height="131" viewBox="0 0 31 131" fill="none" xmlns="http://www.w3.org/2000/svg">
<path d="M12.646 122.371C9.81789 118.914 11.2494 111.451 16.9024 113.963C19.6458 115.182 18.1282 126.714 12.646 115.75" stroke="black" stroke-width="16" stroke-linecap="round"/>
<path d="M13.592 75.0773C13.5527 75.5885 11.1379 67.0976 12.2257 63.9896C13.9437 59.0812 17.7214 70.0256 17.9009 70.8734C20.9426 85.237 7.33247 71.113 8.86264 70.3479" stroke="black" stroke-width="16" stroke-linecap="round"/>
<path d="M15.4834 17.3791C15.4834 23.2389 5.38034 19.1408 8.65215 12.5972C10.3905 9.12054 15.8712 5.99944 18.9516 9.60198C19.9357 10.7529 24.6795 17.4316 21.3688 18.5352C18.1308 19.6145 14.2008 15.9482 11.7 14.5415" stroke="black" stroke-width="16" stroke-linecap="round"/>
</svg>
